<svg xmlns="http://www.w3.org/2000/svg" xmlns:xlink="http://www.w3.org/1999/xlink" width="256" zoomAndPan="magnify" viewBox="0 0 192 191.999996" height="256" preserveAspectRatio="xMidYMid meet" version="1.0"><path fill="#ffec4e" d="M 95.980469 122.863281 C 81.164062 122.863281 69.109375 110.8125 69.109375 95.996094 C 69.109375 81.179688 81.164062 69.128906 95.980469 69.128906 C 110.792969 69.128906 122.847656 81.179688 122.847656 95.996094 C 122.847656 110.8125 110.792969 122.863281 95.980469 122.863281 Z M 95.980469 54.984375 C 73.363281 54.984375 54.964844 73.382812 54.964844 95.996094 C 54.964844 118.609375 73.363281 137.007812 95.980469 137.007812 C 118.589844 137.007812 136.992188 118.609375 136.992188 95.996094 C 136.992188 73.382812 118.589844 54.984375 95.980469 54.984375 " fill-opacity="1" fill-rule="nonzero"/><path fill="#ffec4e" d="M 95.980469 46.191406 C 99.886719 46.191406 103.050781 43.027344 103.050781 39.121094 L 103.050781 7.085938 C 103.050781 3.179688 99.886719 0.015625 95.980469 0.015625 C 92.070312 0.015625 88.90625 3.179688 88.90625 7.085938 L 88.90625 39.121094 C 88.90625 43.027344 92.070312 46.191406 95.980469 46.191406 " fill-opacity="1" fill-rule="nonzero"/><path fill="#ffec4e" d="M 136.195312 62.851562 C 138.003906 62.851562 139.816406 62.160156 141.195312 60.777344 L 163.851562 38.125 C 166.613281 35.363281 166.613281 30.886719 163.851562 28.125 C 161.089844 25.363281 156.609375 25.363281 153.847656 28.125 L 131.195312 50.777344 C 128.433594 53.539062 128.433594 58.015625 131.195312 60.777344 C 132.574219 62.160156 134.386719 62.851562 136.195312 62.851562 " fill-opacity="1" fill-rule="nonzero"/><path fill="#ffec4e" d="M 184.894531 88.925781 L 152.855469 88.925781 C 148.949219 88.925781 145.78125 92.089844 145.78125 95.996094 C 145.78125 99.902344 148.949219 103.070312 152.855469 103.070312 L 184.894531 103.070312 C 188.800781 103.070312 191.964844 99.902344 191.964844 95.996094 C 191.964844 92.089844 188.800781 88.925781 184.894531 88.925781 " fill-opacity="1" fill-rule="nonzero"/><path fill="#ffec4e" d="M 141.195312 131.214844 C 138.433594 128.449219 133.957031 128.453125 131.195312 131.214844 C 128.433594 133.976562 128.433594 138.453125 131.195312 141.214844 L 153.847656 163.871094 C 155.230469 165.25 157.039062 165.941406 158.851562 165.941406 C 160.660156 165.941406 162.46875 165.25 163.851562 163.871094 C 166.613281 161.105469 166.613281 156.628906 163.851562 153.867188 L 141.195312 131.214844 " fill-opacity="1" fill-rule="nonzero"/><path fill="#ffec4e" d="M 95.980469 145.800781 C 92.070312 145.800781 88.90625 148.96875 88.90625 152.875 L 88.90625 184.914062 C 88.90625 188.820312 92.070312 191.984375 95.980469 191.984375 C 99.886719 191.984375 103.050781 188.820312 103.050781 184.914062 L 103.050781 152.875 C 103.050781 148.96875 99.886719 145.800781 95.980469 145.800781 " fill-opacity="1" fill-rule="nonzero"/><path fill="#ffec4e" d="M 50.761719 131.214844 L 28.105469 153.867188 C 25.34375 156.628906 25.34375 161.105469 28.105469 163.871094 C 29.488281 165.25 31.296875 165.941406 33.105469 165.941406 C 34.917969 165.941406 36.726562 165.25 38.105469 163.871094 L 60.761719 141.214844 C 63.523438 138.453125 63.523438 133.976562 60.761719 131.214844 C 58 128.449219 53.519531 128.453125 50.761719 131.214844 " fill-opacity="1" fill-rule="nonzero"/><path fill="#ffec4e" d="M 46.171875 95.996094 C 46.171875 92.089844 43.007812 88.925781 39.101562 88.925781 L 7.058594 88.925781 C 3.152344 88.925781 -0.0117188 92.089844 -0.0117188 95.996094 C -0.0117188 99.902344 3.152344 103.070312 7.058594 103.070312 L 39.101562 103.070312 C 43.007812 103.070312 46.171875 99.902344 46.171875 95.996094 " fill-opacity="1" fill-rule="nonzero"/><path fill="#ffec4e" d="M 50.761719 60.777344 C 52.140625 62.160156 53.949219 62.851562 55.761719 62.851562 C 57.570312 62.851562 59.378906 62.160156 60.761719 60.777344 C 63.523438 58.015625 63.523438 53.539062 60.761719 50.777344 L 38.105469 28.125 C 35.347656 25.363281 30.867188 25.363281 28.105469 28.125 C 25.34375 30.886719 25.34375 35.363281 28.105469 38.125 L 50.761719 60.777344 " fill-opacity="1" fill-rule="nonzero"/></svg>